<svg version="1" xmlns="http://www.w3.org/2000/svg" width="666.667" height="666.667" viewBox="0 0 500.000000 500.000000"><path d="M22 100.3c0 .7 1.1 4.6 2.4 8.7 3.2 9.8 28.5 91.2 30.2 97 .7 2.5 2.6 8.8 4.3 14 3.5 11.1 15.1 48.5 36 116 8.2 26.7 16.2 52.4 17.7 57.3l2.7 8.7h40.5l1-3.8c.5-2 2.2-7.5 3.7-12.2 1.5-4.7 3.1-9.9 3.5-11.5.4-1.7 2-6.8 3.5-11.5s3.5-11.2 4.5-14.5c1-3.3 4.7-15.5 8.3-27 3.6-11.6 11.1-35.9 16.7-54 5.6-18.2 11.9-38.6 14-45.5 6-19 23-74.3 23.5-76 .4-1.6 6.7-22 11.3-37l3-9.5-18.6-.3c-10.2-.1-18.9.1-19.3.5-.4.5-2.1 5.5-3.9 11.3-1.7 5.8-5.1 16.8-7.5 24.5-4.4 14.2-11.3 36.4-18.7 60-2.2 7.1-5.3 17-6.9 22-3.4 10.8-8.2 26.6-8.5 28-.1.5-4.8 15.4-10.2 33-8.7 27.6-15.2 50.7-16.9 59.5-.7 3.8-.9 3.5-2.7-3.2-3.8-14.1-12.4-42.4-37.1-121.8-3.7-11.8-7.5-24.3-8.6-27.8-4.5-14.8-5.9-19.2-8.3-27-5-15.9-7.5-23.9-12.9-41.2l-5.4-17.5-20.6-.3c-16.4-.2-20.7 0-20.7 1.1zM279.9 99.7c-.1.5-.2 68.6-.3 151.5l-.1 150.8H319V260h112v142l19.7-.2 19.8-.3V99H431v131H319V99h-19.5c-10.7 0-19.6.3-19.6.7z"/></svg>